<svg xmlns="http://www.w3.org/2000/svg" xmlns:xlink="http://www.w3.org/1999/xlink" width="160" zoomAndPan="magnify" viewBox="0 0 120 119.999999" height="160" preserveAspectRatio="xMidYMid meet" version="1.0"><defs><g/><clipPath id="2471d59063"><path d="M 26.660156 90.378906 L 29.660156 90.378906 L 29.660156 93.378906 L 26.660156 93.378906 Z M 26.660156 90.378906 " clip-rule="nonzero"/></clipPath><clipPath id="47e8371ef0"><path d="M 90.140625 90.378906 L 93.140625 90.378906 L 93.140625 93.378906 L 90.140625 93.378906 Z M 90.140625 90.378906 " clip-rule="nonzero"/></clipPath><clipPath id="df167e1608"><path d="M 57 35.824219 L 63 35.824219 L 63 43 L 57 43 Z M 57 35.824219 " clip-rule="nonzero"/></clipPath><clipPath id="a6ceff67a8"><path d="M 63 54 L 73.363281 54 L 73.363281 63.019531 L 63 63.019531 Z M 63 54 " clip-rule="nonzero"/></clipPath><clipPath id="d2a61a7968"><path d="M 46.625 54 L 57 54 L 57 63.019531 L 46.625 63.019531 Z M 46.625 54 " clip-rule="nonzero"/></clipPath><clipPath id="f4368cf23a"><path d="M 67 41 L 73 41 L 73 47 L 67 47 Z M 67 41 " clip-rule="nonzero"/></clipPath><clipPath id="8ed8b310cc"><path d="M 73.105469 40.753906 L 73.378906 46.246094 L 67.882812 46.519531 L 67.613281 41.023438 Z M 73.105469 40.753906 " clip-rule="nonzero"/></clipPath><clipPath id="a1a2fa84f5"><path d="M 73.105469 40.753906 L 73.378906 46.246094 L 67.882812 46.519531 L 67.613281 41.023438 Z M 73.105469 40.753906 " clip-rule="nonzero"/></clipPath><clipPath id="fbcde40350"><path d="M 48 42 L 54 42 L 54 48 L 48 48 Z M 48 42 " clip-rule="nonzero"/></clipPath><clipPath id="e07f1beea0"><path d="M 47.792969 42.734375 L 53.289062 42.507812 L 53.515625 48 L 48.019531 48.230469 Z M 47.792969 42.734375 " clip-rule="nonzero"/></clipPath><clipPath id="70144da47f"><path d="M 47.792969 42.734375 L 53.289062 42.507812 L 53.515625 48 L 48.019531 48.230469 Z M 47.792969 42.734375 " clip-rule="nonzero"/></clipPath></defs><rect x="-12" width="144" fill="#ffffff" y="-12" height="143.999998" fill-opacity="1"/><rect x="-12" width="144" fill="#8b8843" y="-12" height="143.999998" fill-opacity="1"/><g clip-path="url(#2471d59063)"><path fill="#f2e9e1" d="M 28.257812 90.378906 C 28.101562 91.695312 27.976562 91.824219 26.660156 91.980469 C 26.664062 91.980469 26.664062 91.980469 26.667969 91.980469 C 27.976562 92.136719 28.105469 92.265625 28.257812 93.578125 C 28.414062 92.261719 28.542969 92.136719 29.859375 91.980469 C 28.542969 91.824219 28.414062 91.695312 28.257812 90.378906 Z M 28.257812 90.378906 " fill-opacity="1" fill-rule="nonzero"/></g><g clip-path="url(#47e8371ef0)"><path fill="#f2e9e1" d="M 91.738281 90.378906 C 91.585938 91.695312 91.457031 91.824219 90.140625 91.980469 C 90.144531 91.980469 90.144531 91.980469 90.148438 91.980469 C 91.457031 92.136719 91.585938 92.265625 91.738281 93.578125 C 91.894531 92.261719 92.023438 92.136719 93.339844 91.980469 C 92.023438 91.824219 91.894531 91.695312 91.738281 90.378906 Z M 91.738281 90.378906 " fill-opacity="1" fill-rule="nonzero"/></g><g fill="#f2e9e1" fill-opacity="1"><g transform="translate(24.495666, 64.836425)"><g><path d="M 0 -0.5625 L 0 -0.265625 L -2.296875 -0.296875 L -2.296875 -0.59375 L -1.1875 -0.578125 L -2.28125 -1.71875 L -2.265625 -2.140625 L -1.359375 -1.171875 L 0.03125 -2.140625 L 0.015625 -1.734375 L -1.140625 -0.953125 L -0.8125 -0.578125 Z M 0 -0.5625 "/></g></g></g><g fill="#f2e9e1" fill-opacity="1"><g transform="translate(24.590914, 61.437677)"><g><path d="M 0.234375 -2.0625 L 0.1875 -1.75 L -0.890625 -1.875 L -1.015625 -0.6875 L 0.0625 -0.5625 L 0.03125 -0.265625 L -2.25 -0.515625 L -2.21875 -0.8125 L -1.265625 -0.703125 L -1.140625 -1.890625 L -2.09375 -2 L -2.046875 -2.3125 Z M 0.234375 -2.0625 "/></g></g></g><g fill="#f2e9e1" fill-opacity="1"><g transform="translate(25.049636, 57.881914)"><g><path d="M -0.625 -1.5625 L -1.6875 -1.453125 L -0.78125 -0.859375 Z M -0.53125 -0.71875 L 0.078125 -0.359375 L 0.015625 -0.046875 L -2.0625 -1.359375 L -1.984375 -1.6875 L 0.4375 -2.046875 L 0.359375 -1.71875 L -0.34375 -1.625 Z M -0.53125 -0.71875 "/></g></g></g><g fill="#f2e9e1" fill-opacity="1"><g transform="translate(25.825239, 54.569171)"><g><path d="M 0.15625 -0.5625 L 0.078125 -0.25 L -2.125 -0.890625 L -2.046875 -1.203125 Z M 0.15625 -0.5625 "/></g></g></g><g fill="#f2e9e1" fill-opacity="1"><g transform="translate(26.457724, 52.555152)"><g/></g></g><g fill="#f2e9e1" fill-opacity="1"><g transform="translate(27.168357, 50.632595)"><g><path d="M 0 -0.640625 L 0.25 -1.171875 C 0.332031 -1.367188 0.320312 -1.554688 0.21875 -1.734375 C 0.113281 -1.910156 -0.0546875 -2.050781 -0.296875 -2.15625 C -0.554688 -2.28125 -0.78125 -2.316406 -0.96875 -2.265625 C -1.15625 -2.210938 -1.296875 -2.082031 -1.390625 -1.875 L -1.625 -1.359375 Z M -1.984375 -1.171875 L -1.609375 -2.015625 C -1.484375 -2.296875 -1.289062 -2.472656 -1.03125 -2.546875 C -0.769531 -2.617188 -0.488281 -2.585938 -0.1875 -2.453125 C 0.132812 -2.304688 0.359375 -2.109375 0.484375 -1.859375 C 0.609375 -1.617188 0.609375 -1.351562 0.484375 -1.0625 L 0.109375 -0.234375 Z M -1.984375 -1.171875 "/></g></g></g><g fill="#f2e9e1" fill-opacity="1"><g transform="translate(28.687579, 47.418984)"><g><path d="M -0.109375 -1.6875 L -1.15625 -1.890625 L -0.46875 -1.0625 Z M -0.28125 -0.84375 L 0.171875 -0.3125 L 0.015625 -0.046875 L -1.53125 -1.921875 L -1.359375 -2.21875 L 1.046875 -1.8125 L 0.875 -1.515625 L 0.171875 -1.640625 Z M -1.75 -2.015625 L -1.890625 -1.78125 L -2.09375 -2.28125 L -1.953125 -2.546875 L -1.421875 -2.59375 L -1.546875 -2.375 L -1.90625 -2.34375 Z M 1 -0.484375 L 0.71875 -0.640625 L 0.859375 -0.890625 L 1.140625 -0.734375 Z M 1 -0.484375 "/></g></g></g><g fill="#f2e9e1" fill-opacity="1"><g transform="translate(30.426612, 44.513028)"><g><path d="M 0.6875 -0.96875 L 0.515625 -0.734375 L -0.234375 -1.265625 L -1.859375 -1.34375 L -1.65625 -1.640625 L -0.375 -1.53125 L -0.890625 -2.71875 L -0.6875 -3.015625 L -0.0625 -1.5 Z M 0.6875 -0.96875 "/></g></g></g><g fill="#f2e9e1" fill-opacity="1"><g transform="translate(32.416676, 41.827493)"><g/></g></g><g fill="#f2e9e1" fill-opacity="1"><g transform="translate(33.746577, 40.26229)"><g><path d="M -0.90625 -1.984375 L -1.4375 -1.4375 L -1.625 -1.625 L -0.328125 -2.96875 L -0.140625 -2.78125 L -0.6875 -2.21875 L 0.78125 -0.8125 L 0.5625 -0.578125 Z M -0.90625 -1.984375 "/></g></g></g><g fill="#f2e9e1" fill-opacity="1"><g transform="translate(36.023346, 37.992557)"><g><path d="M 0.4375 -0.390625 L 0.203125 -0.171875 L -1.328125 -1.890625 L -1.09375 -2.109375 Z M 0.4375 -0.390625 "/></g></g></g><g fill="#f2e9e1" fill-opacity="1"><g transform="translate(37.601367, 36.61425)"><g><path d="M 1.546875 -1.1875 L 0.203125 -0.15625 L -1.1875 -1.984375 L 0.140625 -3 L 0.296875 -2.78125 L -0.78125 -1.953125 L -0.34375 -1.390625 L 0.65625 -2.15625 L 0.8125 -1.9375 L -0.1875 -1.171875 L 0.28125 -0.5625 L 1.375 -1.40625 Z M -0.796875 -2.484375 L -1 -2.328125 L -1 -2.859375 L -0.765625 -3.046875 L -0.25 -2.890625 L -0.453125 -2.734375 L -0.8125 -2.84375 Z M -1.78125 -2.78125 L -1.53125 -2.96875 L -1.078125 -2.765625 L -1.234375 -2.640625 Z M -1.78125 -2.78125 "/></g></g></g><g fill="#f2e9e1" fill-opacity="1"><g transform="translate(40.27044, 34.631143)"><g><path d="M 1.84375 -1.125 L 1.125 -2.28125 C 1.113281 -2.300781 1.066406 -2.378906 0.984375 -2.515625 C 0.910156 -2.648438 0.859375 -2.742188 0.828125 -2.796875 L 0.828125 -2.78125 L 1.296875 -0.796875 L 1.03125 -0.625 L -0.515625 -1.9375 L -0.53125 -1.921875 C -0.5 -1.859375 -0.441406 -1.769531 -0.359375 -1.65625 C -0.285156 -1.539062 -0.242188 -1.472656 -0.234375 -1.453125 L 0.484375 -0.296875 L 0.21875 -0.140625 L -0.984375 -2.09375 L -0.609375 -2.328125 L 0.96875 -1.03125 L 0.515625 -3.015625 L 0.90625 -3.25 L 2.109375 -1.296875 Z M 1.84375 -1.125 "/></g></g></g><g fill="#f2e9e1" fill-opacity="1"><g transform="translate(43.710997, 32.629258)"><g/></g></g><g fill="#f2e9e1" fill-opacity="1"><g transform="translate(45.557488, 31.729693)"><g><path d="M -0.03125 -2.1875 L -0.734375 -1.890625 L -0.828125 -2.140625 L 0.890625 -2.859375 L 0.984375 -2.609375 L 0.265625 -2.296875 L 1.046875 -0.421875 L 0.75 -0.3125 Z M -0.03125 -2.1875 "/></g></g></g><g fill="#f2e9e1" fill-opacity="1"><g transform="translate(48.53003, 30.556317)"><g><path d="M 1.984375 -0.609375 L 1.6875 -0.515625 L 1.375 -1.546875 L 0.21875 -1.203125 L 0.53125 -0.171875 L 0.25 -0.078125 L -0.421875 -2.28125 L -0.140625 -2.375 L 0.140625 -1.453125 L 1.296875 -1.796875 L 1.015625 -2.71875 L 1.3125 -2.8125 Z M 1.984375 -0.609375 "/></g></g></g><g fill="#f2e9e1" fill-opacity="1"><g transform="translate(51.969259, 29.566943)"><g><path d="M -0.1875 -2.296875 L 0.09375 -2.359375 L 0.375 -0.953125 C 0.414062 -0.734375 0.5 -0.582031 0.625 -0.5 C 0.75 -0.425781 0.898438 -0.40625 1.078125 -0.4375 C 1.253906 -0.46875 1.382812 -0.539062 1.46875 -0.65625 C 1.5625 -0.78125 1.585938 -0.945312 1.546875 -1.15625 L 1.265625 -2.578125 L 1.578125 -2.640625 L 1.65625 -2.265625 C 1.6875 -2.265625 1.710938 -2.269531 1.734375 -2.28125 C 1.804688 -2.289062 1.847656 -2.316406 1.859375 -2.359375 C 1.878906 -2.410156 1.882812 -2.472656 1.875 -2.546875 C 1.863281 -2.585938 1.851562 -2.632812 1.84375 -2.6875 L 2.109375 -2.734375 C 2.128906 -2.691406 2.144531 -2.644531 2.15625 -2.59375 C 2.1875 -2.445312 2.171875 -2.332031 2.109375 -2.25 C 2.054688 -2.164062 1.957031 -2.113281 1.8125 -2.09375 C 1.78125 -2.082031 1.738281 -2.070312 1.6875 -2.0625 L 1.859375 -1.1875 C 1.910156 -0.9375 1.867188 -0.710938 1.734375 -0.515625 C 1.609375 -0.328125 1.40625 -0.207031 1.125 -0.15625 C 0.851562 -0.101562 0.625 -0.132812 0.4375 -0.25 C 0.257812 -0.375 0.148438 -0.554688 0.109375 -0.796875 Z M 0.75 -2.703125 L 0.53125 -2.671875 L 0.6875 -3.140625 L 1 -3.203125 Z M 0.75 -2.703125 "/></g></g></g><g fill="#f2e9e1" fill-opacity="1"><g transform="translate(55.804185, 28.901053)"><g><path d="M 1.71875 -1.765625 C 1.675781 -1.921875 1.59375 -2.03125 1.46875 -2.09375 C 1.351562 -2.164062 1.210938 -2.195312 1.046875 -2.1875 C 0.816406 -2.164062 0.640625 -2.066406 0.515625 -1.890625 C 0.390625 -1.722656 0.34375 -1.5 0.375 -1.21875 C 0.394531 -0.894531 0.476562 -0.660156 0.625 -0.515625 C 0.769531 -0.367188 0.960938 -0.304688 1.203125 -0.328125 C 1.367188 -0.335938 1.503906 -0.398438 1.609375 -0.515625 C 1.710938 -0.628906 1.773438 -0.789062 1.796875 -1 L 2.09375 -1.03125 C 2.082031 -0.738281 1.988281 -0.503906 1.8125 -0.328125 C 1.644531 -0.160156 1.429688 -0.0625 1.171875 -0.03125 C 0.859375 -0.0078125 0.597656 -0.0976562 0.390625 -0.296875 C 0.191406 -0.503906 0.078125 -0.796875 0.046875 -1.171875 C 0.015625 -1.546875 0.0859375 -1.84375 0.265625 -2.0625 C 0.441406 -2.289062 0.691406 -2.421875 1.015625 -2.453125 C 1.273438 -2.472656 1.488281 -2.425781 1.65625 -2.3125 C 1.832031 -2.195312 1.945312 -2.023438 2 -1.796875 Z M 1.71875 -1.765625 "/></g></g></g><g fill="#f2e9e1" fill-opacity="1"><g transform="translate(59.377051, 28.673911)"><g/></g></g><g fill="#f2e9e1" fill-opacity="1"><g transform="translate(61.441994, 28.695443)"><g><path d="M 0.96875 -0.703125 L 0.1875 -0.75 L 0.203125 -1.03125 L 0.984375 -0.984375 Z M 0.96875 -0.703125 "/></g></g></g><g fill="#f2e9e1" fill-opacity="1"><g transform="translate(63.784667, 28.869834)"><g/></g></g><g fill="#f2e9e1" fill-opacity="1"><g transform="translate(65.817636, 29.13023)"><g><path d="M 0.609375 -0.15625 L 1.203125 -0.03125 C 1.398438 0.0078125 1.570312 -0.0351562 1.71875 -0.171875 C 1.875 -0.304688 1.976562 -0.507812 2.03125 -0.78125 C 2.09375 -1.050781 2.078125 -1.269531 1.984375 -1.4375 C 1.890625 -1.601562 1.734375 -1.710938 1.515625 -1.765625 L 0.953125 -1.875 Z M 0.71875 -2.203125 L 1.625 -2.015625 C 1.914062 -1.953125 2.125 -1.800781 2.25 -1.5625 C 2.375 -1.332031 2.40625 -1.0625 2.34375 -0.75 C 2.269531 -0.394531 2.128906 -0.128906 1.921875 0.046875 C 1.710938 0.234375 1.457031 0.296875 1.15625 0.234375 L 0.265625 0.046875 Z M 0.71875 -2.203125 "/></g></g></g><g fill="#f2e9e1" fill-opacity="1"><g transform="translate(69.289652, 29.889203)"><g><path d="M 1.609375 -0.484375 L 1.578125 -1.5625 L 0.921875 -0.6875 Z M 0.75 -0.46875 L 0.34375 0.109375 L 0.046875 0.015625 L 1.546875 -1.9375 L 1.875 -1.84375 L 2 0.609375 L 1.671875 0.515625 L 1.640625 -0.203125 Z M 1.5625 -2.09375 L 1.296875 -2.171875 L 1.734375 -2.5 L 2.03125 -2.40625 L 2.203125 -1.890625 L 1.953125 -1.96875 L 1.828125 -2.3125 Z M 2.546875 -2.765625 C 2.503906 -2.660156 2.441406 -2.585938 2.359375 -2.546875 C 2.285156 -2.503906 2.207031 -2.5 2.125 -2.53125 C 2.09375 -2.539062 2.046875 -2.566406 1.984375 -2.609375 L 1.84375 -2.6875 C 1.789062 -2.71875 1.75 -2.738281 1.71875 -2.75 C 1.632812 -2.78125 1.570312 -2.753906 1.53125 -2.671875 L 1.390625 -2.71875 C 1.429688 -2.820312 1.488281 -2.890625 1.5625 -2.921875 C 1.632812 -2.960938 1.710938 -2.972656 1.796875 -2.953125 C 1.847656 -2.929688 1.898438 -2.90625 1.953125 -2.875 L 2.09375 -2.765625 C 2.132812 -2.734375 2.164062 -2.71875 2.1875 -2.71875 C 2.269531 -2.6875 2.335938 -2.71875 2.390625 -2.8125 Z M 2.546875 -2.765625 "/></g></g></g><g fill="#f2e9e1" fill-opacity="1"><g transform="translate(72.510849, 30.924791)"><g><path d="M 2.515625 -1.4375 L 2.796875 -1.328125 L 1.921875 0.796875 L 1.609375 0.65625 L 1.234375 -1.5 L 0.515625 0.21875 L 0.25 0.109375 L 1.125 -2.015625 L 1.453125 -1.890625 L 1.8125 0.28125 Z M 2.515625 -1.4375 "/></g></g></g><g fill="#f2e9e1" fill-opacity="1"><g transform="translate(75.809297, 32.378763)"><g/></g></g><g fill="#f2e9e1" fill-opacity="1"><g transform="translate(77.627353, 33.338951)"><g><path d="M 0.625 0.0625 L 1.625 0.65625 L 1.484375 0.890625 L 0.234375 0.140625 L 1.421875 -1.828125 L 1.671875 -1.671875 Z M 0.625 0.0625 "/></g></g></g><g fill="#f2e9e1" fill-opacity="1"><g transform="translate(80.19891, 34.94545)"><g><path d="M 2.328125 0.296875 C 2.484375 0.0859375 2.554688 -0.128906 2.546875 -0.359375 C 2.535156 -0.585938 2.429688 -0.773438 2.234375 -0.921875 C 2.035156 -1.078125 1.828125 -1.125 1.609375 -1.0625 C 1.390625 -1 1.203125 -0.863281 1.046875 -0.65625 C 0.878906 -0.4375 0.800781 -0.210938 0.8125 0.015625 C 0.832031 0.242188 0.9375 0.429688 1.125 0.578125 C 1.320312 0.710938 1.523438 0.753906 1.734375 0.703125 C 1.953125 0.660156 2.148438 0.523438 2.328125 0.296875 Z M 2.578125 0.484375 C 2.367188 0.753906 2.117188 0.921875 1.828125 0.984375 C 1.535156 1.054688 1.25 0.992188 0.96875 0.796875 C 0.6875 0.578125 0.53125 0.316406 0.5 0.015625 C 0.476562 -0.285156 0.570312 -0.570312 0.78125 -0.84375 C 0.988281 -1.125 1.238281 -1.296875 1.53125 -1.359375 C 1.832031 -1.429688 2.125 -1.359375 2.40625 -1.140625 C 2.6875 -0.929688 2.832031 -0.675781 2.84375 -0.375 C 2.863281 -0.0703125 2.773438 0.210938 2.578125 0.484375 Z M 2.3125 -1.34375 L 2.09375 -1.5 L 2.609375 -1.65625 L 2.84375 -1.46875 L 2.84375 -0.9375 L 2.640625 -1.09375 L 2.640625 -1.453125 Z M 3.078125 -1.25 L 2.921875 -1.375 L 3.359375 -1.578125 L 3.625 -1.390625 Z M 3.078125 -1.25 "/></g></g></g><g fill="#f2e9e1" fill-opacity="1"><g transform="translate(83.156812, 37.254084)"><g><path d="M 0.4375 0.375 L 0.203125 0.171875 L 1.71875 -1.546875 L 1.953125 -1.34375 Z M 0.4375 0.375 "/></g></g></g><g fill="#f2e9e1" fill-opacity="1"><g transform="translate(84.716494, 38.677461)"><g/></g></g><g fill="#f2e9e1" fill-opacity="1"><g transform="translate(86.157521, 40.14102)"><g><path d="M 2.0625 -0.71875 L 1.5625 -1.296875 L 1.765625 -1.46875 L 2.984375 -0.0625 L 2.78125 0.109375 L 2.265625 -0.484375 L 0.734375 0.84375 L 0.53125 0.609375 Z M 2.0625 -0.71875 "/></g></g></g><g fill="#f2e9e1" fill-opacity="1"><g transform="translate(88.214251, 42.612023)"><g><path d="M 0.34375 0.46875 L 0.15625 0.21875 L 2 -1.15625 L 2.1875 -0.90625 Z M 0.34375 0.46875 "/></g></g></g><g fill="#f2e9e1" fill-opacity="1"><g transform="translate(89.4493, 44.300547)"><g><path d="M 2.890625 0.296875 L 3.046875 0.546875 L 1.109375 1.765625 L 0.921875 1.46875 L 1.875 -0.515625 L 0.296875 0.46875 L 0.140625 0.21875 L 2.078125 -1 L 2.265625 -0.6875 L 1.328125 1.28125 Z M 2.890625 0.296875 "/></g></g></g><g fill="#f2e9e1" fill-opacity="1"><g transform="translate(91.302372, 47.370209)"><g><path d="M 0.921875 1.859375 L 0.78125 1.578125 L 1.75 1.09375 L 1.21875 0.015625 L 0.25 0.5 L 0.125 0.234375 L 2.1875 -0.78125 L 2.3125 -0.515625 L 1.453125 -0.09375 L 1.984375 0.984375 L 2.84375 0.5625 L 2.984375 0.84375 Z M 0.921875 1.859375 "/></g></g></g><g fill="#f2e9e1" fill-opacity="1"><g transform="translate(92.827991, 50.632273)"><g/></g></g><g fill="#f2e9e1" fill-opacity="1"><g transform="translate(93.566652, 52.548682)"><g><path d="M 2.1875 0.171875 L 1.953125 -0.5625 L 2.203125 -0.640625 L 2.765625 1.125 L 2.515625 1.203125 L 2.28125 0.46875 L 0.34375 1.078125 L 0.25 0.78125 Z M 2.1875 0.171875 "/></g></g></g><g fill="#f2e9e1" fill-opacity="1"><g transform="translate(94.480492, 55.611665)"><g><path d="M 0.4375 2.03125 L 0.375 1.734375 L 1.421875 1.515625 L 1.171875 0.328125 L 0.125 0.546875 L 0.0625 0.265625 L 2.3125 -0.21875 L 2.375 0.0625 L 1.4375 0.265625 L 1.6875 1.453125 L 2.625 1.25 L 2.6875 1.546875 Z M 0.4375 2.03125 "/></g></g></g><g fill="#f2e9e1" fill-opacity="1"><g transform="translate(95.164207, 59.131074)"><g><path d="M 1.09375 1.28125 L 2.0625 0.84375 L 1.015625 0.578125 Z M 0.734375 0.515625 L 0.046875 0.359375 L 0 0.046875 L 2.390625 0.65625 L 2.421875 0.984375 L 0.234375 2.078125 L 0.203125 1.734375 L 0.84375 1.421875 Z M 2.53125 0.59375 L 2.5 0.328125 L 2.984375 0.609375 L 3.015625 0.90625 L 2.609375 1.25 L 2.578125 1 L 2.859375 0.765625 Z M 3.296875 -0.109375 L 3.328125 0.203125 L 2.921875 0.5 L 2.890625 0.296875 Z M 3.296875 -0.109375 "/></g></g></g><g fill="#f2e9e1" fill-opacity="1"><g transform="translate(95.488404, 62.498373)"><g><path d="M 2.328125 1.75 L 2.328125 2.046875 L 0.03125 2.078125 L 0.03125 1.734375 L 1.875 0.53125 L 0.015625 0.5625 L 0 0.265625 L 2.296875 0.234375 L 2.3125 0.59375 L 0.46875 1.78125 Z M 2.328125 1.75 "/></g></g></g><g fill="#f2e9e1" fill-opacity="1"><g transform="translate(22.210959, 81.453541)"><g><path d="M 8.75 -4.234375 C 9.226562 -3.785156 9.566406 -3.335938 9.765625 -2.890625 C 9.960938 -2.441406 10.082031 -1.984375 10.125 -1.515625 C 10.164062 -1.046875 10.1875 -0.539062 10.1875 0 L 3.890625 -5.65625 C 3.398438 -6.113281 3.054688 -6.5625 2.859375 -7 C 2.671875 -7.445312 2.550781 -7.90625 2.5 -8.375 C 2.457031 -8.851562 2.4375 -9.359375 2.4375 -9.890625 Z M 12.296875 -9.890625 C 11.878906 -9.742188 11.539062 -9.585938 11.28125 -9.421875 C 11.019531 -9.265625 10.804688 -9.054688 10.640625 -8.796875 C 10.472656 -8.535156 10.320312 -8.191406 10.1875 -7.765625 C 10.039062 -8.191406 9.882812 -8.535156 9.71875 -8.796875 C 9.5625 -9.054688 9.351562 -9.265625 9.09375 -9.421875 C 8.832031 -9.585938 8.488281 -9.742188 8.0625 -9.890625 Z M 2.40625 -2.125 C 2.539062 -1.695312 2.691406 -1.351562 2.859375 -1.09375 C 3.023438 -0.832031 3.238281 -0.617188 3.5 -0.453125 C 3.757812 -0.296875 4.097656 -0.144531 4.515625 0 L 0.28125 0 C 0.707031 -0.144531 1.046875 -0.296875 1.296875 -0.453125 C 1.554688 -0.617188 1.769531 -0.832031 1.9375 -1.09375 C 2.101562 -1.351562 2.257812 -1.695312 2.40625 -2.125 Z M 2.40625 -2.125 "/></g></g></g><g fill="#f2e9e1" fill-opacity="1"><g transform="translate(34.921515, 81.453541)"><g><path d="M 4.078125 -13.90625 C 4.210938 -13.675781 4.378906 -13.507812 4.578125 -13.40625 C 4.773438 -13.300781 4.976562 -13.207031 5.1875 -13.125 C 5.40625 -13.039062 5.609375 -12.921875 5.796875 -12.765625 C 5.992188 -12.609375 6.148438 -12.367188 6.265625 -12.046875 C 6.378906 -11.734375 6.4375 -11.296875 6.4375 -10.734375 C 6.3125 -10.953125 6.148438 -11.113281 5.953125 -11.21875 C 5.765625 -11.320312 5.5625 -11.410156 5.34375 -11.484375 C 5.125 -11.566406 4.921875 -11.671875 4.734375 -11.796875 C 4.546875 -11.929688 4.390625 -12.117188 4.265625 -12.359375 C 4.140625 -12.609375 4.078125 -12.960938 4.078125 -13.421875 C 4.078125 -12.960938 4.015625 -12.609375 3.890625 -12.359375 C 3.773438 -12.117188 3.625 -11.929688 3.4375 -11.796875 C 3.25 -11.671875 3.046875 -11.566406 2.828125 -11.484375 C 2.609375 -11.410156 2.398438 -11.320312 2.203125 -11.21875 C 2.003906 -11.113281 1.84375 -10.953125 1.71875 -10.734375 C 1.71875 -11.296875 1.773438 -11.734375 1.890625 -12.046875 C 2.015625 -12.367188 2.171875 -12.609375 2.359375 -12.765625 C 2.554688 -12.921875 2.757812 -13.039062 2.96875 -13.125 C 3.1875 -13.207031 3.394531 -13.300781 3.59375 -13.40625 C 3.789062 -13.507812 3.953125 -13.675781 4.078125 -13.90625 Z M 0.59375 0 C 0.851562 -0.269531 1.046875 -0.523438 1.171875 -0.765625 C 1.304688 -1.003906 1.394531 -1.28125 1.4375 -1.59375 C 1.488281 -1.914062 1.515625 -2.328125 1.515625 -2.828125 L 1.515625 -7.0625 C 1.515625 -7.5625 1.488281 -7.96875 1.4375 -8.28125 C 1.394531 -8.59375 1.304688 -8.867188 1.171875 -9.109375 C 1.046875 -9.359375 0.851562 -9.617188 0.59375 -9.890625 L 4.265625 -9.890625 C 4.015625 -9.617188 3.820312 -9.359375 3.6875 -9.109375 C 3.550781 -8.867188 3.457031 -8.59375 3.40625 -8.28125 C 3.363281 -7.96875 3.34375 -7.5625 3.34375 -7.0625 L 3.34375 -2.828125 C 3.34375 -2.328125 3.363281 -1.914062 3.40625 -1.59375 C 3.457031 -1.28125 3.550781 -1.003906 3.6875 -0.765625 C 3.820312 -0.523438 4.015625 -0.269531 4.265625 0 Z M 7.796875 -7.765625 C 7.648438 -8.191406 7.492188 -8.535156 7.328125 -8.796875 C 7.171875 -9.054688 6.960938 -9.265625 6.703125 -9.421875 C 6.441406 -9.585938 6.097656 -9.742188 5.671875 -9.890625 L 7.796875 -9.890625 Z M 4.125 -5.046875 C 4.332031 -5.066406 4.566406 -5.117188 4.828125 -5.203125 C 5.097656 -5.296875 5.359375 -5.421875 5.609375 -5.578125 C 5.867188 -5.734375 6.082031 -5.910156 6.25 -6.109375 L 6.25 -3.984375 C 6.082031 -4.191406 5.867188 -4.367188 5.609375 -4.515625 C 5.359375 -4.671875 5.097656 -4.796875 4.828125 -4.890625 C 4.566406 -4.984375 4.332031 -5.035156 4.125 -5.046875 Z M 5.671875 0 C 6.097656 -0.144531 6.441406 -0.296875 6.703125 -0.453125 C 6.960938 -0.617188 7.171875 -0.832031 7.328125 -1.09375 C 7.492188 -1.351562 7.648438 -1.695312 7.796875 -2.125 L 7.796875 0 Z M 5.671875 0 "/></g></g></g><g fill="#f2e9e1" fill-opacity="1"><g transform="translate(41.603125, 75.181585)"><g><path d="M -3.765625 -8.46875 C -3.765625 -9.039062 -3.707031 -9.484375 -3.59375 -9.796875 C -3.476562 -10.109375 -3.320312 -10.34375 -3.125 -10.5 C -2.9375 -10.65625 -2.734375 -10.773438 -2.515625 -10.859375 C -2.304688 -10.941406 -2.101562 -11.035156 -1.90625 -11.140625 C -1.707031 -11.242188 -1.539062 -11.410156 -1.40625 -11.640625 C -1.40625 -11.078125 -1.460938 -10.632812 -1.578125 -10.3125 C -1.703125 -10 -1.859375 -9.765625 -2.046875 -9.609375 C -2.242188 -9.453125 -2.445312 -9.332031 -2.65625 -9.25 C -2.875 -9.164062 -3.082031 -9.070312 -3.28125 -8.96875 C -3.476562 -8.863281 -3.640625 -8.695312 -3.765625 -8.46875 Z M -3.765625 -8.46875 "/></g></g></g><g fill="#f2e9e1" fill-opacity="1"><g transform="translate(43.070394, 81.453541)"><g><path d="M 8.75 -4.234375 C 9.226562 -3.785156 9.566406 -3.335938 9.765625 -2.890625 C 9.960938 -2.441406 10.082031 -1.984375 10.125 -1.515625 C 10.164062 -1.046875 10.1875 -0.539062 10.1875 0 L 3.890625 -5.65625 C 3.398438 -6.113281 3.054688 -6.5625 2.859375 -7 C 2.671875 -7.445312 2.550781 -7.90625 2.5 -8.375 C 2.457031 -8.851562 2.4375 -9.359375 2.4375 -9.890625 Z M 12.296875 -9.890625 C 11.878906 -9.742188 11.539062 -9.585938 11.28125 -9.421875 C 11.019531 -9.265625 10.804688 -9.054688 10.640625 -8.796875 C 10.472656 -8.535156 10.320312 -8.191406 10.1875 -7.765625 C 10.039062 -8.191406 9.882812 -8.535156 9.71875 -8.796875 C 9.5625 -9.054688 9.351562 -9.265625 9.09375 -9.421875 C 8.832031 -9.585938 8.488281 -9.742188 8.0625 -9.890625 Z M 2.40625 -2.125 C 2.539062 -1.695312 2.691406 -1.351562 2.859375 -1.09375 C 3.023438 -0.832031 3.238281 -0.617188 3.5 -0.453125 C 3.757812 -0.296875 4.097656 -0.144531 4.515625 0 L 0.28125 0 C 0.707031 -0.144531 1.046875 -0.296875 1.296875 -0.453125 C 1.554688 -0.617188 1.769531 -0.832031 1.9375 -1.09375 C 2.101562 -1.351562 2.257812 -1.695312 2.40625 -2.125 Z M 2.40625 -2.125 "/></g></g></g><g fill="#f2e9e1" fill-opacity="1"><g transform="translate(55.78095, 81.453541)"><g/></g></g><g fill="#f2e9e1" fill-opacity="1"><g transform="translate(60.017802, 81.453541)"><g><path d="M 8.390625 -2.125 C 8.691406 -1.488281 9.03125 -1.007812 9.40625 -0.6875 C 9.78125 -0.375 10.242188 -0.144531 10.796875 0 L 5.375 0 C 5.664062 -0.09375 5.90625 -0.222656 6.09375 -0.390625 C 6.289062 -0.566406 6.40625 -0.789062 6.4375 -1.0625 C 6.46875 -1.34375 6.390625 -1.695312 6.203125 -2.125 L 4.640625 -5.59375 C 4.398438 -6.132812 4.25 -6.617188 4.1875 -7.046875 C 4.132812 -7.484375 4.140625 -7.875 4.203125 -8.21875 C 4.273438 -8.5625 4.375 -8.867188 4.5 -9.140625 C 4.625 -9.410156 4.75 -9.660156 4.875 -9.890625 Z M 13.375 -2.125 C 13.675781 -1.488281 14.015625 -1.007812 14.390625 -0.6875 C 14.765625 -0.375 15.226562 -0.144531 15.78125 0 C 14.789062 0 14 -0.0664062 13.40625 -0.203125 C 12.820312 -0.347656 12.363281 -0.578125 12.03125 -0.890625 C 11.695312 -1.203125 11.414062 -1.613281 11.1875 -2.125 L 9.625 -5.59375 C 9.382812 -6.132812 9.234375 -6.617188 9.171875 -7.046875 C 9.117188 -7.484375 9.125 -7.875 9.1875 -8.21875 C 9.257812 -8.5625 9.359375 -8.867188 9.484375 -9.140625 C 9.609375 -9.410156 9.734375 -9.660156 9.859375 -9.890625 Z M 2.140625 -2.125 C 2.273438 -1.695312 2.425781 -1.351562 2.59375 -1.09375 C 2.757812 -0.832031 2.96875 -0.617188 3.21875 -0.453125 C 3.476562 -0.296875 3.820312 -0.144531 4.25 0 L 0.015625 0 C 0.441406 -0.144531 0.78125 -0.296875 1.03125 -0.453125 C 1.289062 -0.617188 1.503906 -0.832031 1.671875 -1.09375 C 1.835938 -1.351562 1.992188 -1.695312 2.140625 -2.125 Z M 2.140625 -2.125 "/></g></g></g><g fill="#f2e9e1" fill-opacity="1"><g transform="translate(75.793015, 81.453541)"><g><path d="M 0.6875 -4.9375 C 0.6875 -5.789062 0.816406 -6.523438 1.078125 -7.140625 C 1.335938 -7.765625 1.691406 -8.28125 2.140625 -8.6875 C 2.585938 -9.09375 3.097656 -9.394531 3.671875 -9.59375 C 4.253906 -9.789062 4.867188 -9.890625 5.515625 -9.890625 C 4.710938 -9.441406 4.082031 -8.800781 3.625 -7.96875 C 3.175781 -7.132812 2.953125 -6.125 2.953125 -4.9375 C 2.953125 -3.75 3.175781 -2.738281 3.625 -1.90625 C 4.082031 -1.070312 4.710938 -0.4375 5.515625 0 C 4.867188 0 4.253906 -0.0976562 3.671875 -0.296875 C 3.097656 -0.492188 2.585938 -0.796875 2.140625 -1.203125 C 1.691406 -1.609375 1.335938 -2.117188 1.078125 -2.734375 C 0.816406 -3.359375 0.6875 -4.09375 0.6875 -4.9375 Z M 11.734375 -4.9375 C 11.734375 -4.09375 11.601562 -3.359375 11.34375 -2.734375 C 11.09375 -2.117188 10.742188 -1.609375 10.296875 -1.203125 C 9.847656 -0.796875 9.332031 -0.492188 8.75 -0.296875 C 8.164062 -0.0976562 7.554688 0 6.921875 0 C 7.734375 -0.4375 8.363281 -1.070312 8.8125 -1.90625 C 9.257812 -2.738281 9.484375 -3.75 9.484375 -4.9375 C 9.484375 -6.125 9.257812 -7.132812 8.8125 -7.96875 C 8.363281 -8.800781 7.734375 -9.441406 6.921875 -9.890625 C 7.554688 -9.890625 8.164062 -9.789062 8.75 -9.59375 C 9.332031 -9.394531 9.847656 -9.09375 10.296875 -8.6875 C 10.742188 -8.28125 11.09375 -7.765625 11.34375 -7.140625 C 11.601562 -6.523438 11.734375 -5.789062 11.734375 -4.9375 Z M 6.171875 2.71875 C 5.890625 2.71875 5.65625 2.617188 5.46875 2.421875 C 5.28125 2.234375 5.1875 2 5.1875 1.71875 C 5.1875 1.4375 5.28125 1.203125 5.46875 1.015625 C 5.65625 0.828125 5.890625 0.734375 6.171875 0.734375 C 6.453125 0.734375 6.6875 0.828125 6.875 1.015625 C 7.0625 1.203125 7.15625 1.4375 7.15625 1.71875 C 7.15625 2 7.0625 2.234375 6.875 2.421875 C 6.6875 2.617188 6.453125 2.71875 6.171875 2.71875 Z M 6.171875 2.71875 "/></g></g></g><g fill="#f2e9e1" fill-opacity="1"><g transform="translate(85.737734, 79.193376)"><g><path d="M -3.765625 -11.640625 C -3.640625 -11.410156 -3.476562 -11.242188 -3.28125 -11.140625 C -3.082031 -11.035156 -2.875 -10.941406 -2.65625 -10.859375 C -2.445312 -10.773438 -2.242188 -10.65625 -2.046875 -10.5 C -1.859375 -10.34375 -1.703125 -10.109375 -1.578125 -9.796875 C -1.460938 -9.484375 -1.40625 -9.039062 -1.40625 -8.46875 C -1.53125 -8.6875 -1.691406 -8.847656 -1.890625 -8.953125 C -2.085938 -9.054688 -2.296875 -9.144531 -2.515625 -9.21875 C -2.734375 -9.300781 -2.9375 -9.40625 -3.125 -9.53125 C -3.3125 -9.664062 -3.460938 -9.859375 -3.578125 -10.109375 C -3.703125 -10.359375 -3.765625 -10.707031 -3.765625 -11.15625 C -3.765625 -10.707031 -3.828125 -10.359375 -3.953125 -10.109375 C -4.078125 -9.859375 -4.234375 -9.664062 -4.421875 -9.53125 C -4.609375 -9.40625 -4.8125 -9.300781 -5.03125 -9.21875 C -5.25 -9.144531 -5.457031 -9.054688 -5.65625 -8.953125 C -5.851562 -8.847656 -6.007812 -8.6875 -6.125 -8.46875 C -6.125 -9.039062 -6.066406 -9.484375 -5.953125 -9.796875 C -5.835938 -10.109375 -5.679688 -10.34375 -5.484375 -10.5 C -5.296875 -10.65625 -5.09375 -10.773438 -4.875 -10.859375 C -4.664062 -10.941406 -4.460938 -11.035156 -4.265625 -11.140625 C -4.066406 -11.242188 -3.898438 -11.410156 -3.765625 -11.640625 Z M -3.765625 -11.640625 "/></g></g></g><g fill="#f2e9e1" fill-opacity="1"><g transform="translate(88.122253, 81.453541)"><g><path d="M 0.640625 -4.9375 C 0.640625 -5.789062 0.765625 -6.523438 1.015625 -7.140625 C 1.273438 -7.765625 1.628906 -8.28125 2.078125 -8.6875 C 2.523438 -9.09375 3.035156 -9.394531 3.609375 -9.59375 C 4.191406 -9.789062 4.804688 -9.890625 5.453125 -9.890625 C 4.648438 -9.441406 4.019531 -8.800781 3.5625 -7.96875 C 3.113281 -7.132812 2.890625 -6.125 2.890625 -4.9375 C 2.890625 -3.75 3.113281 -2.738281 3.5625 -1.90625 C 4.019531 -1.070312 4.648438 -0.4375 5.453125 0 C 4.804688 0 4.191406 -0.0976562 3.609375 -0.296875 C 3.035156 -0.492188 2.523438 -0.796875 2.078125 -1.203125 C 1.628906 -1.609375 1.273438 -2.117188 1.015625 -2.734375 C 0.765625 -3.359375 0.640625 -4.09375 0.640625 -4.9375 Z M 8.984375 -7.765625 C 8.835938 -8.191406 8.679688 -8.535156 8.515625 -8.796875 C 8.359375 -9.054688 8.148438 -9.265625 7.890625 -9.421875 C 7.628906 -9.585938 7.285156 -9.742188 6.859375 -9.890625 L 8.984375 -9.890625 Z M 6.859375 0 C 7.285156 -0.144531 7.628906 -0.296875 7.890625 -0.453125 C 8.148438 -0.617188 8.359375 -0.832031 8.515625 -1.09375 C 8.679688 -1.351562 8.835938 -1.695312 8.984375 -2.125 L 8.984375 0 Z M 6.859375 0 "/></g></g></g><g fill="#f2e9e1" fill-opacity="1"><g transform="translate(46.130052, 92.999237)"><g><path d="M 2.296875 0 L 0.3125 0 L 0.3125 -2.703125 L 2.28125 -2.703125 L 2.28125 -2.375 L 0.671875 -2.375 L 0.671875 -1.546875 L 2.15625 -1.546875 L 2.15625 -1.234375 L 0.671875 -1.234375 L 0.671875 -0.328125 L 2.296875 -0.328125 Z M 2.296875 0 "/></g></g></g><g fill="#f2e9e1" fill-opacity="1"><g transform="translate(49.639183, 92.999237)"><g><path d="M 1.890625 -1.90625 C 1.890625 -2.082031 1.828125 -2.21875 1.703125 -2.3125 C 1.585938 -2.414062 1.429688 -2.46875 1.234375 -2.46875 C 1.035156 -2.46875 0.878906 -2.425781 0.765625 -2.34375 C 0.660156 -2.257812 0.609375 -2.140625 0.609375 -1.984375 C 0.609375 -1.898438 0.628906 -1.828125 0.671875 -1.765625 C 0.722656 -1.710938 0.8125 -1.671875 0.9375 -1.640625 L 1.703125 -1.46875 C 1.910156 -1.425781 2.0625 -1.335938 2.15625 -1.203125 C 2.257812 -1.078125 2.3125 -0.925781 2.3125 -0.75 C 2.3125 -0.476562 2.210938 -0.269531 2.015625 -0.125 C 1.828125 0.0078125 1.570312 0.078125 1.25 0.078125 C 1.019531 0.078125 0.832031 0.046875 0.6875 -0.015625 C 0.550781 -0.078125 0.429688 -0.175781 0.328125 -0.3125 C 0.222656 -0.445312 0.171875 -0.632812 0.171875 -0.875 L 0.5 -0.875 C 0.5 -0.675781 0.566406 -0.519531 0.703125 -0.40625 C 0.835938 -0.289062 1.019531 -0.234375 1.25 -0.234375 C 1.476562 -0.234375 1.65625 -0.273438 1.78125 -0.359375 C 1.90625 -0.441406 1.96875 -0.554688 1.96875 -0.703125 C 1.96875 -0.828125 1.925781 -0.921875 1.84375 -0.984375 C 1.769531 -1.054688 1.628906 -1.117188 1.421875 -1.171875 L 0.828125 -1.296875 C 0.640625 -1.347656 0.492188 -1.425781 0.390625 -1.53125 C 0.296875 -1.644531 0.25 -1.78125 0.25 -1.9375 C 0.25 -2.175781 0.332031 -2.375 0.5 -2.53125 C 0.664062 -2.695312 0.894531 -2.78125 1.1875 -2.78125 C 1.519531 -2.78125 1.773438 -2.707031 1.953125 -2.5625 C 2.128906 -2.425781 2.222656 -2.207031 2.234375 -1.90625 Z M 1.890625 -1.90625 "/></g></g></g><g fill="#f2e9e1" fill-opacity="1"><g transform="translate(53.194225, 92.999237)"><g><path d="M 0.953125 -2.375 L 0.046875 -2.375 L 0.046875 -2.703125 L 2.234375 -2.703125 L 2.234375 -2.375 L 1.328125 -2.375 L 1.328125 0 L 0.953125 0 Z M 0.953125 -2.375 "/></g></g></g><g fill="#f2e9e1" fill-opacity="1"><g transform="translate(56.543587, 92.999237)"><g><path d="M 0.671875 -0.3125 L 1.375 -0.3125 C 1.625 -0.3125 1.816406 -0.40625 1.953125 -0.59375 C 2.085938 -0.78125 2.15625 -1.035156 2.15625 -1.359375 C 2.15625 -1.679688 2.085938 -1.929688 1.953125 -2.109375 C 1.816406 -2.296875 1.613281 -2.390625 1.34375 -2.390625 L 0.671875 -2.390625 Z M 0.3125 -2.703125 L 1.40625 -2.703125 C 1.757812 -2.703125 2.035156 -2.578125 2.234375 -2.328125 C 2.429688 -2.085938 2.53125 -1.773438 2.53125 -1.390625 C 2.53125 -0.972656 2.429688 -0.632812 2.234375 -0.375 C 2.035156 -0.125 1.753906 0 1.390625 0 L 0.3125 0 Z M 0.3125 -2.703125 "/></g></g></g><g fill="#f2e9e1" fill-opacity="1"><g transform="translate(62.300227, 92.999237)"><g><path d="M 0.171875 -1.703125 C 0.171875 -2.015625 0.25 -2.25 0.40625 -2.40625 C 0.5625 -2.5625 0.785156 -2.640625 1.078125 -2.640625 C 1.316406 -2.640625 1.515625 -2.566406 1.671875 -2.421875 C 1.828125 -2.273438 1.90625 -2.085938 1.90625 -1.859375 C 1.90625 -1.671875 1.859375 -1.515625 1.765625 -1.390625 C 1.679688 -1.273438 1.550781 -1.164062 1.375 -1.0625 L 0.921875 -0.8125 C 0.660156 -0.664062 0.507812 -0.5 0.46875 -0.3125 L 1.90625 -0.3125 L 1.90625 0 L 0.09375 0 C 0.101562 -0.25 0.15625 -0.457031 0.25 -0.625 C 0.351562 -0.789062 0.507812 -0.929688 0.71875 -1.046875 L 1.1875 -1.328125 C 1.3125 -1.398438 1.40625 -1.472656 1.46875 -1.546875 C 1.53125 -1.628906 1.5625 -1.738281 1.5625 -1.875 C 1.5625 -2.007812 1.507812 -2.117188 1.40625 -2.203125 C 1.3125 -2.296875 1.1875 -2.34375 1.03125 -2.34375 C 0.851562 -2.34375 0.71875 -2.285156 0.625 -2.171875 C 0.539062 -2.054688 0.5 -1.898438 0.5 -1.703125 Z M 0.171875 -1.703125 "/></g></g></g><g fill="#f2e9e1" fill-opacity="1"><g transform="translate(65.456765, 92.999237)"><g><path d="M 1.59375 -1.28125 C 1.59375 -1.632812 1.546875 -1.898438 1.453125 -2.078125 C 1.359375 -2.253906 1.222656 -2.34375 1.046875 -2.34375 C 0.867188 -2.34375 0.734375 -2.253906 0.640625 -2.078125 C 0.546875 -1.898438 0.5 -1.632812 0.5 -1.28125 C 0.5 -0.9375 0.546875 -0.671875 0.640625 -0.484375 C 0.734375 -0.304688 0.867188 -0.21875 1.046875 -0.21875 C 1.222656 -0.21875 1.359375 -0.304688 1.453125 -0.484375 C 1.546875 -0.660156 1.59375 -0.925781 1.59375 -1.28125 Z M 1.953125 -1.28125 C 1.953125 -0.851562 1.875 -0.519531 1.71875 -0.28125 C 1.5625 -0.0390625 1.335938 0.078125 1.046875 0.078125 C 0.742188 0.078125 0.515625 -0.0390625 0.359375 -0.28125 C 0.210938 -0.53125 0.140625 -0.863281 0.140625 -1.28125 C 0.140625 -1.707031 0.21875 -2.039062 0.375 -2.28125 C 0.53125 -2.519531 0.753906 -2.640625 1.046875 -2.640625 C 1.335938 -2.640625 1.5625 -2.519531 1.71875 -2.28125 C 1.875 -2.050781 1.953125 -1.71875 1.953125 -1.28125 Z M 1.953125 -1.28125 "/></g></g></g><g fill="#f2e9e1" fill-opacity="1"><g transform="translate(68.613303, 92.999237)"><g><path d="M 0.171875 -1.703125 C 0.171875 -2.015625 0.25 -2.25 0.40625 -2.40625 C 0.5625 -2.5625 0.785156 -2.640625 1.078125 -2.640625 C 1.316406 -2.640625 1.515625 -2.566406 1.671875 -2.421875 C 1.828125 -2.273438 1.90625 -2.085938 1.90625 -1.859375 C 1.90625 -1.671875 1.859375 -1.515625 1.765625 -1.390625 C 1.679688 -1.273438 1.550781 -1.164062 1.375 -1.0625 L 0.921875 -0.8125 C 0.660156 -0.664062 0.507812 -0.5 0.46875 -0.3125 L 1.90625 -0.3125 L 1.90625 0 L 0.09375 0 C 0.101562 -0.25 0.15625 -0.457031 0.25 -0.625 C 0.351562 -0.789062 0.507812 -0.929688 0.71875 -1.046875 L 1.1875 -1.328125 C 1.3125 -1.398438 1.40625 -1.472656 1.46875 -1.546875 C 1.53125 -1.628906 1.5625 -1.738281 1.5625 -1.875 C 1.5625 -2.007812 1.507812 -2.117188 1.40625 -2.203125 C 1.3125 -2.296875 1.1875 -2.34375 1.03125 -2.34375 C 0.851562 -2.34375 0.71875 -2.285156 0.625 -2.171875 C 0.539062 -2.054688 0.5 -1.898438 0.5 -1.703125 Z M 0.171875 -1.703125 "/></g></g></g><g fill="#f2e9e1" fill-opacity="1"><g transform="translate(71.769841, 92.999237)"><g><path d="M 0.40625 -0.9375 L 1.25 -0.9375 L 1.25 -2.125 Z M 1.578125 -0.640625 L 1.578125 0 L 1.25 0 L 1.25 -0.640625 L 0.09375 -0.640625 L 0.09375 -0.96875 L 1.3125 -2.640625 L 1.578125 -2.640625 L 1.578125 -0.9375 L 1.96875 -0.9375 L 1.96875 -0.640625 Z M 1.578125 -0.640625 "/></g></g></g><path fill="#f2e9e1" d="M 60.933594 42.664062 C 60.933594 42.414062 60.875 42.167969 60.761719 41.941406 L 60.011719 40.4375 L 59.257812 41.941406 C 59.148438 42.167969 59.089844 42.414062 59.089844 42.664062 C 59.089844 43.035156 59.214844 43.386719 59.4375 43.667969 L 60.585938 43.667969 C 60.804688 43.386719 60.933594 43.035156 60.933594 42.664062 Z M 60.933594 42.664062 " fill-opacity="1" fill-rule="nonzero"/><path fill="#f2e9e1" d="M 60.933594 47.359375 C 61.1875 47.359375 61.394531 47.152344 61.394531 46.898438 L 61.394531 45.050781 C 61.394531 44.890625 61.429688 44.734375 61.480469 44.589844 L 60.472656 44.589844 L 60.472656 46.898438 C 60.472656 47.152344 60.679688 47.359375 60.933594 47.359375 Z M 60.933594 47.359375 " fill-opacity="1" fill-rule="nonzero"/><g clip-path="url(#df167e1608)"><path fill="#f2e9e1" d="M 58.433594 41.527344 L 60.011719 38.371094 L 61.589844 41.527344 C 61.757812 41.863281 61.847656 42.242188 61.855469 42.617188 C 62.148438 42.234375 62.316406 41.761719 62.316406 41.257812 C 62.316406 40.8125 62.1875 40.382812 61.941406 40.011719 L 61.09375 38.738281 C 60.6875 38.128906 60.472656 37.421875 60.472656 36.691406 C 60.472656 36.210938 60.082031 35.824219 59.605469 35.824219 L 59.550781 35.824219 L 59.550781 36.691406 C 59.550781 37.421875 59.335938 38.128906 58.929688 38.738281 L 58.082031 40.011719 C 57.832031 40.382812 57.703125 40.8125 57.703125 41.257812 C 57.703125 41.761719 57.875 42.234375 58.167969 42.617188 C 58.175781 42.242188 58.265625 41.863281 58.433594 41.527344 Z M 58.433594 41.527344 " fill-opacity="1" fill-rule="nonzero"/></g><path fill="#f2e9e1" d="M 65.851562 55.367188 C 66.820312 54.742188 67.886719 54.300781 69.011719 54.054688 C 69.457031 53.285156 69.703125 52.410156 69.703125 51.511719 L 69.703125 50.128906 L 68.316406 50.128906 C 67.164062 50.128906 66.058594 50.519531 65.160156 51.230469 C 65.703125 52.070312 66.011719 53.054688 66.011719 54.085938 C 66.011719 54.519531 65.953125 54.949219 65.851562 55.367188 Z M 65.851562 55.367188 " fill-opacity="1" fill-rule="nonzero"/><path fill="#f2e9e1" d="M 64.164062 49.667969 C 64.164062 49.921875 64.371094 50.128906 64.625 50.128906 C 64.878906 50.128906 65.085938 49.921875 65.085938 49.667969 L 65.085938 45.050781 C 65.085938 44.796875 64.878906 44.589844 64.625 44.589844 L 64.078125 44.589844 C 64.132812 44.734375 64.164062 44.890625 64.164062 45.050781 Z M 64.164062 49.667969 " fill-opacity="1" fill-rule="nonzero"/><path fill="#f2e9e1" d="M 62.316406 46.898438 C 62.316406 47.496094 61.933594 48 61.402344 48.195312 L 63.242188 49.417969 L 63.242188 45.050781 C 63.242188 44.796875 63.035156 44.589844 62.78125 44.589844 C 62.523438 44.589844 62.316406 44.796875 62.316406 45.050781 Z M 62.316406 46.898438 " fill-opacity="1" fill-rule="nonzero"/><path fill="#f2e9e1" d="M 56.359375 49.699219 L 59.683594 47.484375 C 59.601562 47.304688 59.550781 47.109375 59.550781 46.898438 L 59.550781 44.589844 L 55.394531 44.589844 C 55.140625 44.589844 54.933594 44.796875 54.933594 45.050781 L 54.933594 50.152344 C 55.101562 50.257812 55.265625 50.375 55.421875 50.5 C 55.699219 50.203125 56.011719 49.933594 56.359375 49.699219 Z M 56.359375 49.699219 " fill-opacity="1" fill-rule="nonzero"/><path fill="#f2e9e1" d="M 56.359375 54.316406 L 60.011719 51.882812 L 63.664062 54.316406 C 64.128906 54.625 64.527344 55.007812 64.863281 55.433594 C 65.007812 55 65.085938 54.546875 65.085938 54.085938 C 65.085938 52.628906 64.363281 51.277344 63.152344 50.46875 L 60.011719 48.375 L 56.871094 50.46875 C 55.660156 51.277344 54.933594 52.628906 54.933594 54.085938 C 54.933594 54.546875 55.015625 55 55.15625 55.433594 C 55.496094 55.007812 55.894531 54.625 56.359375 54.316406 Z M 56.359375 54.316406 " fill-opacity="1" fill-rule="nonzero"/><path fill="#f2e9e1" d="M 65.085938 58.703125 C 65.085938 57.242188 64.363281 55.890625 63.152344 55.082031 L 60.011719 52.992188 L 56.871094 55.082031 C 55.660156 55.890625 54.933594 57.242188 54.933594 58.703125 C 54.933594 60.765625 56.382812 62.496094 58.320312 62.9375 C 57.351562 62.019531 56.78125 60.742188 56.78125 59.359375 L 57.703125 59.359375 C 57.703125 60.742188 58.402344 61.996094 59.550781 62.730469 L 59.550781 58.433594 L 60.472656 58.433594 L 60.472656 62.730469 C 61.617188 61.996094 62.316406 60.742188 62.316406 59.359375 L 63.242188 59.359375 C 63.242188 60.742188 62.671875 62.019531 61.703125 62.9375 C 63.636719 62.496094 65.085938 60.765625 65.085938 58.703125 Z M 65.085938 58.703125 " fill-opacity="1" fill-rule="nonzero"/><g clip-path="url(#a6ceff67a8)"><path fill="#f2e9e1" d="M 71.085938 54.742188 C 69.085938 54.742188 67.15625 55.433594 65.601562 56.679688 C 65.863281 57.3125 66.011719 57.996094 66.011719 58.703125 C 66.011719 60.503906 65.097656 62.097656 63.710938 63.050781 L 64.625 63.050781 C 69.304688 63.050781 73.140625 59.363281 73.382812 54.742188 Z M 71.085938 54.742188 " fill-opacity="1" fill-rule="nonzero"/></g><g clip-path="url(#d2a61a7968)"><path fill="#f2e9e1" d="M 54.011719 58.703125 C 54.011719 57.996094 54.15625 57.3125 54.417969 56.679688 C 52.867188 55.433594 50.9375 54.742188 48.9375 54.742188 L 46.640625 54.742188 C 46.878906 59.363281 50.714844 63.050781 55.394531 63.050781 L 56.308594 63.050781 C 54.921875 62.097656 54.011719 60.503906 54.011719 58.703125 Z M 54.011719 58.703125 " fill-opacity="1" fill-rule="nonzero"/></g><path fill="#f2e9e1" d="M 54.171875 55.367188 C 54.066406 54.949219 54.011719 54.519531 54.011719 54.085938 C 54.011719 53.054688 54.316406 52.070312 54.859375 51.230469 C 53.964844 50.519531 52.859375 50.128906 51.703125 50.128906 L 50.320312 50.128906 L 50.320312 51.511719 C 50.320312 52.410156 50.5625 53.285156 51.011719 54.054688 C 52.132812 54.300781 53.203125 54.742188 54.171875 55.367188 Z M 54.171875 55.367188 " fill-opacity="1" fill-rule="nonzero"/><g clip-path="url(#f4368cf23a)"><g clip-path="url(#8ed8b310cc)"><g clip-path="url(#a1a2fa84f5)"><path fill="#f2e9e1" d="M 72.851562 41.246094 C 72.851562 41.246094 71.914062 40.8125 69.859375 41.839844 C 67.800781 42.871094 67.925781 45.980469 67.925781 45.980469 C 67.925781 45.980469 69.5 46.382812 71.378906 45.105469 C 73.257812 43.824219 72.851562 41.246094 72.851562 41.246094 Z M 72.851562 41.246094 " fill-opacity="1" fill-rule="nonzero"/></g></g></g><g clip-path="url(#fbcde40350)"><g clip-path="url(#e07f1beea0)"><g clip-path="url(#70144da47f)"><path fill="#f2e9e1" d="M 48.285156 42.992188 C 48.285156 42.992188 47.839844 43.925781 48.855469 45.992188 C 49.867188 48.054688 52.976562 47.953125 52.976562 47.953125 C 52.976562 47.953125 53.394531 46.386719 52.128906 44.496094 C 50.863281 42.609375 48.285156 42.992188 48.285156 42.992188 Z M 48.285156 42.992188 " fill-opacity="1" fill-rule="nonzero"/></g></g></g></svg>